<mxfile host="Electron" modified="2023-12-08T12:05:59.287Z" agent="Mozilla/5.0 (Windows NT 10.0; Win64; x64) AppleWebKit/537.36 (KHTML, like Gecko) draw.io/21.6.1 Chrome/112.0.5615.204 Electron/24.6.1 Safari/537.36" etag="ViKb5RS5-Nak0ArkeJS3" version="21.6.1" type="device">
  <diagram id="C5RBs43oDa-KdzZeNtuy" name="Page-1">
    <mxGraphModel dx="774" dy="560" grid="1" gridSize="10" guides="1" tooltips="1" connect="1" arrows="1" fold="1" page="1" pageScale="1" pageWidth="2336" pageHeight="1654" math="0" shadow="0">
      <root>
        <mxCell id="WIyWlLk6GJQsqaUBKTNV-0" />
        <mxCell id="WIyWlLk6GJQsqaUBKTNV-1" parent="WIyWlLk6GJQsqaUBKTNV-0" />
        <mxCell id="fcJVb3HREh7NScvAmxeq-0" value="" style="group" parent="WIyWlLk6GJQsqaUBKTNV-1" vertex="1" connectable="0">
          <mxGeometry x="40" y="40" width="490" height="220" as="geometry" />
        </mxCell>
        <mxCell id="fcJVb3HREh7NScvAmxeq-1" value="&lt;font color=&quot;#000000&quot; size=&quot;1&quot;&gt;&lt;b style=&quot;font-size: 14px&quot;&gt;Legend:&lt;br&gt;&lt;/b&gt;&lt;/font&gt;&lt;br&gt;&lt;br&gt;&lt;br&gt;&lt;font color=&quot;#0000ff&quot; style=&quot;font-size: 6px&quot;&gt;&lt;br&gt;&lt;/font&gt;&lt;span style=&quot;color: rgb(0 , 0 , 0)&quot;&gt;&lt;font style=&quot;font-size: 4px&quot;&gt;&amp;nbsp; &amp;nbsp;&lt;/font&gt;&amp;nbsp;In progress&amp;nbsp; &amp;nbsp; &amp;nbsp; &amp;nbsp; &amp;nbsp; &amp;nbsp; In validation&amp;nbsp; &amp;nbsp; &amp;nbsp; &amp;nbsp; &amp;nbsp; &amp;nbsp;Ready to use&lt;/span&gt;&lt;font color=&quot;#000000&quot;&gt;&amp;nbsp;&lt;br&gt;&lt;/font&gt;&lt;font color=&quot;#0000ff&quot;&gt;&lt;br&gt;&lt;br&gt;&lt;br&gt;&lt;br&gt;&amp;nbsp;attribute / method()&amp;nbsp; &amp;nbsp; &amp;nbsp; &amp;nbsp; New public attribute/method to be implemented&lt;/font&gt;&lt;br&gt;&lt;font color=&quot;#000000&quot;&gt;&amp;nbsp;&lt;/font&gt;&lt;font color=&quot;#000000&quot;&gt;attribute / method()&lt;span&gt;&#x9;&lt;/span&gt;&amp;nbsp; &amp;nbsp; &amp;nbsp; &amp;nbsp;New/inherited public attribute/method that is implemented here&lt;br&gt;&lt;/font&gt;&lt;font color=&quot;#0000ff&quot;&gt;&amp;nbsp;_attribute /&amp;nbsp;&lt;/font&gt;&lt;font color=&quot;#0000ff&quot;&gt;_method()&amp;nbsp; &amp;nbsp; New protected method/attribute to be implemented&lt;/font&gt;&lt;br&gt;&lt;font color=&quot;#000000&quot;&gt;&amp;nbsp;_attribute / _method()&amp;nbsp; &amp;nbsp; New/inherited protected attribute/method that is implemented here&lt;br&gt;&lt;/font&gt;&lt;font color=&quot;#000000&quot;&gt;&lt;br&gt;&lt;br&gt;&lt;br&gt;&lt;br&gt;&lt;br&gt;&lt;/font&gt;" style="text;html=1;align=left;verticalAlign=top;whiteSpace=wrap;rounded=0;fontColor=#006600;strokeColor=#000000;shadow=1;fillColor=#ffffff;" parent="fcJVb3HREh7NScvAmxeq-0" vertex="1">
          <mxGeometry width="489.99999999999994" height="220" as="geometry" />
        </mxCell>
        <mxCell id="fcJVb3HREh7NScvAmxeq-2" value="Depends on" style="endArrow=block;html=1;labelPosition=right;verticalLabelPosition=middle;align=left;verticalAlign=middle;endFill=1;fontSize=12;" parent="fcJVb3HREh7NScvAmxeq-0" edge="1">
          <mxGeometry x="-1623.1249999999998" y="-2180" width="51.041666666666664" height="50" as="geometry">
            <mxPoint x="10.20802398989899" y="120.00301587301601" as="sourcePoint" />
            <mxPoint x="55.990852272727174" y="120.00301587301601" as="targetPoint" />
            <mxPoint x="98" as="offset" />
            <Array as="points">
              <mxPoint x="30.624999999999996" y="120" />
            </Array>
          </mxGeometry>
        </mxCell>
        <mxCell id="fcJVb3HREh7NScvAmxeq-3" value="Inherits from" style="endArrow=block;html=1;labelPosition=right;verticalLabelPosition=middle;align=left;verticalAlign=middle;endFill=0;fontSize=12;" parent="fcJVb3HREh7NScvAmxeq-0" edge="1">
          <mxGeometry x="-1623.1249999999998" y="-2180" width="51.041666666666664" height="50" as="geometry">
            <mxPoint x="10.20802398989899" y="132.3846031746034" as="sourcePoint" />
            <mxPoint x="55.990852272727174" y="132.3846031746034" as="targetPoint" />
            <mxPoint x="98" y="1" as="offset" />
          </mxGeometry>
        </mxCell>
        <mxCell id="fcJVb3HREh7NScvAmxeq-4" value="" style="swimlane;fontStyle=3;align=center;verticalAlign=top;childLayout=stackLayout;horizontal=1;startSize=26;horizontalStack=0;resizeParent=1;resizeLast=0;collapsible=1;marginBottom=0;rounded=0;shadow=1;strokeWidth=1;fillColor=#f8cecc;strokeColor=#b85450;gradientColor=#ffffff;swimlaneFillColor=#ffffff;" parent="fcJVb3HREh7NScvAmxeq-0" vertex="1">
          <mxGeometry x="10.208333333333332" y="40" width="40.83333333333333" height="34" as="geometry">
            <mxRectangle x="230" y="140" width="160" height="26" as="alternateBounds" />
          </mxGeometry>
        </mxCell>
        <mxCell id="fcJVb3HREh7NScvAmxeq-5" value="" style="line;html=1;strokeWidth=1;align=left;verticalAlign=middle;spacingTop=-1;spacingLeft=3;spacingRight=3;rotatable=0;labelPosition=right;points=[];portConstraint=eastwest;" parent="fcJVb3HREh7NScvAmxeq-4" vertex="1">
          <mxGeometry y="26" width="40.83333333333333" height="8" as="geometry" />
        </mxCell>
        <mxCell id="fcJVb3HREh7NScvAmxeq-6" value="" style="swimlane;fontStyle=3;align=center;verticalAlign=top;childLayout=stackLayout;horizontal=1;startSize=26;horizontalStack=0;resizeParent=1;resizeLast=0;collapsible=1;marginBottom=0;rounded=0;shadow=1;strokeWidth=1;fillColor=#fff2cc;strokeColor=#d6b656;gradientColor=#ffffff;swimlaneFillColor=#ffffff;" parent="fcJVb3HREh7NScvAmxeq-0" vertex="1">
          <mxGeometry x="112.29166666666666" y="40" width="40.83333333333333" height="34" as="geometry">
            <mxRectangle x="230" y="140" width="160" height="26" as="alternateBounds" />
          </mxGeometry>
        </mxCell>
        <mxCell id="fcJVb3HREh7NScvAmxeq-7" value="" style="line;html=1;strokeWidth=1;align=left;verticalAlign=middle;spacingTop=-1;spacingLeft=3;spacingRight=3;rotatable=0;labelPosition=right;points=[];portConstraint=eastwest;" parent="fcJVb3HREh7NScvAmxeq-6" vertex="1">
          <mxGeometry y="26" width="40.83333333333333" height="8" as="geometry" />
        </mxCell>
        <mxCell id="fcJVb3HREh7NScvAmxeq-8" value="" style="swimlane;fontStyle=3;align=center;verticalAlign=top;childLayout=stackLayout;horizontal=1;startSize=26;horizontalStack=0;resizeParent=1;resizeLast=0;collapsible=1;marginBottom=0;rounded=0;shadow=1;strokeWidth=1;fillColor=#dae8fc;strokeColor=#6c8ebf;gradientColor=#ffffff;swimlaneFillColor=#ffffff;" parent="fcJVb3HREh7NScvAmxeq-0" vertex="1">
          <mxGeometry x="214.37499999999997" y="40" width="40.83333333333333" height="34" as="geometry">
            <mxRectangle x="230" y="140" width="160" height="26" as="alternateBounds" />
          </mxGeometry>
        </mxCell>
        <mxCell id="fcJVb3HREh7NScvAmxeq-9" value="" style="line;html=1;strokeWidth=1;align=left;verticalAlign=middle;spacingTop=-1;spacingLeft=3;spacingRight=3;rotatable=0;labelPosition=right;points=[];portConstraint=eastwest;" parent="fcJVb3HREh7NScvAmxeq-8" vertex="1">
          <mxGeometry y="26" width="40.83333333333333" height="8" as="geometry" />
        </mxCell>
        <mxCell id="8to30gGF-NwvKGgbKM0f-0" style="edgeStyle=orthogonalEdgeStyle;rounded=0;orthogonalLoop=1;jettySize=auto;html=1;endArrow=block;endFill=1;" parent="WIyWlLk6GJQsqaUBKTNV-1" source="fdyP1tWBDfPf_pqGQ-dC-91" target="ZzQm4s6gQr2k5gAJpQ90-0" edge="1">
          <mxGeometry relative="1" as="geometry" />
        </mxCell>
        <mxCell id="fdyP1tWBDfPf_pqGQ-dC-91" value="ClusterAnalyzer (OATask)" style="swimlane;fontStyle=3;align=center;verticalAlign=top;childLayout=stackLayout;horizontal=1;startSize=26;horizontalStack=0;resizeParent=1;resizeLast=0;collapsible=1;marginBottom=0;rounded=0;shadow=1;strokeWidth=1;fillColor=#dae8fc;strokeColor=#6c8ebf;swimlaneFillColor=#ffffff;gradientColor=#FFFFFF;" parent="WIyWlLk6GJQsqaUBKTNV-1" vertex="1">
          <mxGeometry x="230" y="380" width="300" height="784" as="geometry">
            <mxRectangle x="230" y="140" width="160" height="26" as="alternateBounds" />
          </mxGeometry>
        </mxCell>
        <mxCell id="u_LcHSpNlp2SDuldC6Ik-1" value="C_TYPE = &#39;Cluster Analyzer&#39;" style="text;align=left;verticalAlign=top;spacingLeft=4;spacingRight=4;overflow=hidden;rotatable=0;points=[[0,0.5],[1,0.5]];portConstraint=eastwest;fontColor=default;" parent="fdyP1tWBDfPf_pqGQ-dC-91" vertex="1">
          <mxGeometry y="26" width="300" height="26" as="geometry" />
        </mxCell>
        <mxCell id="ha-FynVWbeqEeqbahRzi-0" value="C_NAME = &#39;????&#39;" style="text;align=left;verticalAlign=top;spacingLeft=4;spacingRight=4;overflow=hidden;rotatable=0;points=[[0,0.5],[1,0.5]];portConstraint=eastwest;fontColor=#0000CC;" parent="fdyP1tWBDfPf_pqGQ-dC-91" vertex="1">
          <mxGeometry y="52" width="300" height="26" as="geometry" />
        </mxCell>
        <mxCell id="FSbazA9buHETMWcpUqeL-2" value="C_EVENT_CLUSTER_ADDED = &#39;CLUSTER_ADDED&#39;" style="text;align=left;verticalAlign=top;spacingLeft=4;spacingRight=4;overflow=hidden;rotatable=0;points=[[0,0.5],[1,0.5]];portConstraint=eastwest;fontColor=default;" parent="fdyP1tWBDfPf_pqGQ-dC-91" vertex="1">
          <mxGeometry y="78" width="300" height="26" as="geometry" />
        </mxCell>
        <mxCell id="FSbazA9buHETMWcpUqeL-3" value="C_EVENT_CLUSTER_REMOVED = &#39;CLUSTER_REMOVED&#39;" style="text;align=left;verticalAlign=top;spacingLeft=4;spacingRight=4;overflow=hidden;rotatable=0;points=[[0,0.5],[1,0.5]];portConstraint=eastwest;fontColor=default;" parent="fdyP1tWBDfPf_pqGQ-dC-91" vertex="1">
          <mxGeometry y="104" width="300" height="26" as="geometry" />
        </mxCell>
        <mxCell id="NiR23lWWdtpF8f0qRRbo-54" value="C_PLOT_ACTIVE = True" style="text;align=left;verticalAlign=top;spacingLeft=4;spacingRight=4;overflow=hidden;rotatable=0;points=[[0,0.5],[1,0.5]];portConstraint=eastwest;fontColor=default;" parent="fdyP1tWBDfPf_pqGQ-dC-91" vertex="1">
          <mxGeometry y="130" width="300" height="26" as="geometry" />
        </mxCell>
        <mxCell id="NiR23lWWdtpF8f0qRRbo-55" value="C_PLOT_STANDALONE = False" style="text;align=left;verticalAlign=top;spacingLeft=4;spacingRight=4;overflow=hidden;rotatable=0;points=[[0,0.5],[1,0.5]];portConstraint=eastwest;fontColor=default;" parent="fdyP1tWBDfPf_pqGQ-dC-91" vertex="1">
          <mxGeometry y="156" width="300" height="28" as="geometry" />
        </mxCell>
        <mxCell id="_bpy7UCVCgOma2jbvFI5-0" value="C_MS_SCOPE_ALL : int = 0" style="text;align=left;verticalAlign=top;spacingLeft=4;spacingRight=4;overflow=hidden;rotatable=0;points=[[0,0.5],[1,0.5]];portConstraint=eastwest;fontColor=default;" parent="fdyP1tWBDfPf_pqGQ-dC-91" vertex="1">
          <mxGeometry y="184" width="300" height="28" as="geometry" />
        </mxCell>
        <mxCell id="_bpy7UCVCgOma2jbvFI5-1" value="C_MS_SCOPE_NONZERO : int = 1" style="text;align=left;verticalAlign=top;spacingLeft=4;spacingRight=4;overflow=hidden;rotatable=0;points=[[0,0.5],[1,0.5]];portConstraint=eastwest;fontColor=default;" parent="fdyP1tWBDfPf_pqGQ-dC-91" vertex="1">
          <mxGeometry y="212" width="300" height="28" as="geometry" />
        </mxCell>
        <mxCell id="_bpy7UCVCgOma2jbvFI5-2" value="C_MS_SCOPE_MAX : int = 2" style="text;align=left;verticalAlign=top;spacingLeft=4;spacingRight=4;overflow=hidden;rotatable=0;points=[[0,0.5],[1,0.5]];portConstraint=eastwest;fontColor=default;" parent="fdyP1tWBDfPf_pqGQ-dC-91" vertex="1">
          <mxGeometry y="240" width="300" height="28" as="geometry" />
        </mxCell>
        <mxCell id="kwwsB1o3Xoa45IJOqoYI-13" value="_cls_cluster" style="text;align=left;verticalAlign=top;spacingLeft=4;spacingRight=4;overflow=hidden;rotatable=0;points=[[0,0.5],[1,0.5]];portConstraint=eastwest;fontColor=default;" parent="fdyP1tWBDfPf_pqGQ-dC-91" vertex="1">
          <mxGeometry y="268" width="300" height="30" as="geometry" />
        </mxCell>
        <mxCell id="KbXGNwIy8tF2vyQGKh3L-16" value="_clusters : dict" style="text;align=left;verticalAlign=top;spacingLeft=4;spacingRight=4;overflow=hidden;rotatable=0;points=[[0,0.5],[1,0.5]];portConstraint=eastwest;fontColor=default;" parent="fdyP1tWBDfPf_pqGQ-dC-91" vertex="1">
          <mxGeometry y="298" width="300" height="26" as="geometry" />
        </mxCell>
        <mxCell id="a86A7pApxkxCLPiuyfrF-0" value="_cluster_limit : int" style="text;align=left;verticalAlign=top;spacingLeft=4;spacingRight=4;overflow=hidden;rotatable=0;points=[[0,0.5],[1,0.5]];portConstraint=eastwest;fontColor=default;" parent="fdyP1tWBDfPf_pqGQ-dC-91" vertex="1">
          <mxGeometry y="324" width="300" height="26" as="geometry" />
        </mxCell>
        <mxCell id="fdyP1tWBDfPf_pqGQ-dC-95" value="" style="line;html=1;strokeWidth=1;align=left;verticalAlign=middle;spacingTop=-1;spacingLeft=3;spacingRight=3;rotatable=0;labelPosition=right;points=[];portConstraint=eastwest;" parent="fdyP1tWBDfPf_pqGQ-dC-91" vertex="1">
          <mxGeometry y="350" width="300" height="8" as="geometry" />
        </mxCell>
        <mxCell id="tHnWimVgxmXVisinzfcg-1" value="__init__( p_cls_cluster,&#xa;               p_cluster_limit : int = 0,&#xa;               p_name : str = None,&#xa;               p_range_max=MLTask.C_RANGE_THREAD,&#xa;               p_ada : bool = True,&#xa;               p_visualize : bool = False,&#xa;               p_logging = Log.C_LOG_ALL,&#xa;               **p_kwargs )" style="text;align=left;verticalAlign=top;spacingLeft=4;spacingRight=4;overflow=hidden;rotatable=0;points=[[0,0.5],[1,0.5]];portConstraint=eastwest;fontColor=default;" parent="fdyP1tWBDfPf_pqGQ-dC-91" vertex="1">
          <mxGeometry y="358" width="300" height="125" as="geometry" />
        </mxCell>
        <mxCell id="FSbazA9buHETMWcpUqeL-1" value="_run( p_inst_new : List[Instance], &#xa;         p_inst_del : List[Instance] )" style="text;align=left;verticalAlign=top;spacingLeft=4;spacingRight=4;overflow=hidden;rotatable=0;points=[[0,0.5],[1,0.5]];portConstraint=eastwest;fontColor=default;" parent="fdyP1tWBDfPf_pqGQ-dC-91" vertex="1">
          <mxGeometry y="483" width="300" height="36" as="geometry" />
        </mxCell>
        <mxCell id="qOahkQ_iAJw-odyaK0tz-0" value="new_cluster_allowed() : bool" style="text;align=left;verticalAlign=top;spacingLeft=4;spacingRight=4;overflow=hidden;rotatable=0;points=[[0,0.5],[1,0.5]];portConstraint=eastwest;fontColor=default;" parent="fdyP1tWBDfPf_pqGQ-dC-91" vertex="1">
          <mxGeometry y="519" width="300" height="26" as="geometry" />
        </mxCell>
        <mxCell id="NC4ok9Ms9W8lQ4tfJlZF-27" value="get_clusters() -&gt; dict[Cluster]" style="text;align=left;verticalAlign=top;spacingLeft=4;spacingRight=4;overflow=hidden;rotatable=0;points=[[0,0.5],[1,0.5]];portConstraint=eastwest;fontColor=default;" parent="fdyP1tWBDfPf_pqGQ-dC-91" vertex="1">
          <mxGeometry y="545" width="300" height="26" as="geometry" />
        </mxCell>
        <mxCell id="HgFk4HmuHH4VQ0Jvzqtj-0" value="_add_cluster( p_cluster: Cluster ) -&gt; bool" style="text;align=left;verticalAlign=top;spacingLeft=4;spacingRight=4;overflow=hidden;rotatable=0;points=[[0,0.5],[1,0.5]];portConstraint=eastwest;fontColor=default;" vertex="1" parent="fdyP1tWBDfPf_pqGQ-dC-91">
          <mxGeometry y="571" width="300" height="26" as="geometry" />
        </mxCell>
        <mxCell id="HgFk4HmuHH4VQ0Jvzqtj-1" value="_remove_cluster( p_cluster: Cluster )" style="text;align=left;verticalAlign=top;spacingLeft=4;spacingRight=4;overflow=hidden;rotatable=0;points=[[0,0.5],[1,0.5]];portConstraint=eastwest;fontColor=default;" vertex="1" parent="fdyP1tWBDfPf_pqGQ-dC-91">
          <mxGeometry y="597" width="300" height="26" as="geometry" />
        </mxCell>
        <mxCell id="MdppRDNMOQBX0Ns-GjJF-3" value="get_cluster_memberships( &#xa;         p_inst : Instance,&#xa;         p_scope : int = C_MS_SCOPE_MAX&#xa;         ) -&gt; List[ Tuple [ str, float, Cluster ] ]" style="text;align=left;verticalAlign=top;spacingLeft=4;spacingRight=4;overflow=hidden;rotatable=0;points=[[0,0.5],[1,0.5]];portConstraint=eastwest;fontColor=default;" parent="fdyP1tWBDfPf_pqGQ-dC-91" vertex="1">
          <mxGeometry y="623" width="300" height="69" as="geometry" />
        </mxCell>
        <mxCell id="1s4E6dsTAfM4Sj1OL9Xe-2" value="init_plot( p_figure:Figure=None, &#xa;               p_plot_settings : PlotSettings = None )" style="text;align=left;verticalAlign=top;spacingLeft=4;spacingRight=4;overflow=hidden;rotatable=0;points=[[0,0.5],[1,0.5]];portConstraint=eastwest;fontColor=default;" parent="fdyP1tWBDfPf_pqGQ-dC-91" vertex="1">
          <mxGeometry y="692" width="300" height="40" as="geometry" />
        </mxCell>
        <mxCell id="1s4E6dsTAfM4Sj1OL9Xe-1" value="update_plot( p_inst_new : List[Instance] = None, &#xa;                     p_inst_del : List[Instance] = None,&#xa;                     **p_kwargs )" style="text;align=left;verticalAlign=top;spacingLeft=4;spacingRight=4;overflow=hidden;rotatable=0;points=[[0,0.5],[1,0.5]];portConstraint=eastwest;fontColor=default;" parent="fdyP1tWBDfPf_pqGQ-dC-91" vertex="1">
          <mxGeometry y="732" width="300" height="52" as="geometry" />
        </mxCell>
        <mxCell id="ZzQm4s6gQr2k5gAJpQ90-0" value="Cluster &#xa;(bf.various.Id, bf.plot.Plottable)" style="swimlane;fontStyle=3;align=center;verticalAlign=top;childLayout=stackLayout;horizontal=1;startSize=40;horizontalStack=0;resizeParent=1;resizeLast=0;collapsible=1;marginBottom=0;rounded=0;shadow=1;strokeWidth=1;fillColor=#dae8fc;strokeColor=#6c8ebf;swimlaneFillColor=#ffffff;gradientColor=#FFFFFF;" parent="WIyWlLk6GJQsqaUBKTNV-1" vertex="1">
          <mxGeometry x="650" y="380" width="300" height="293" as="geometry">
            <mxRectangle x="230" y="140" width="160" height="26" as="alternateBounds" />
          </mxGeometry>
        </mxCell>
        <mxCell id="KbXGNwIy8tF2vyQGKh3L-18" value="C_PLOT_ACTIVE = True" style="text;align=left;verticalAlign=top;spacingLeft=4;spacingRight=4;overflow=hidden;rotatable=0;points=[[0,0.5],[1,0.5]];portConstraint=eastwest;fontColor=default;" parent="ZzQm4s6gQr2k5gAJpQ90-0" vertex="1">
          <mxGeometry y="40" width="300" height="26" as="geometry" />
        </mxCell>
        <mxCell id="KbXGNwIy8tF2vyQGKh3L-17" value="C_PLOT_STANDALONE = False" style="text;align=left;verticalAlign=top;spacingLeft=4;spacingRight=4;overflow=hidden;rotatable=0;points=[[0,0.5],[1,0.5]];portConstraint=eastwest;fontColor=default;" parent="ZzQm4s6gQr2k5gAJpQ90-0" vertex="1">
          <mxGeometry y="66" width="300" height="28" as="geometry" />
        </mxCell>
        <mxCell id="1s4E6dsTAfM4Sj1OL9Xe-6" value="C_PLOT_VALID_VIEWS = [ C_PLOT_VIEW_2D,&#xa;                                              C_PLOT_VIEW_3D,&#xa;                                              C_PLOT_VIEW_ND ]" style="text;align=left;verticalAlign=top;spacingLeft=4;spacingRight=4;overflow=hidden;rotatable=0;points=[[0,0.5],[1,0.5]];portConstraint=eastwest;fontColor=default;" parent="ZzQm4s6gQr2k5gAJpQ90-0" vertex="1">
          <mxGeometry y="94" width="300" height="52" as="geometry" />
        </mxCell>
        <mxCell id="1s4E6dsTAfM4Sj1OL9Xe-7" value="C_PLOT_DEFAULT_VIEW = C_PLOT_VIEW_ND" style="text;align=left;verticalAlign=top;spacingLeft=4;spacingRight=4;overflow=hidden;rotatable=0;points=[[0,0.5],[1,0.5]];portConstraint=eastwest;fontColor=default;" parent="ZzQm4s6gQr2k5gAJpQ90-0" vertex="1">
          <mxGeometry y="146" width="300" height="30" as="geometry" />
        </mxCell>
        <mxCell id="KbXGNwIy8tF2vyQGKh3L-12" value="_kwargs : dict" style="text;align=left;verticalAlign=top;spacingLeft=4;spacingRight=4;overflow=hidden;rotatable=0;points=[[0,0.5],[1,0.5]];portConstraint=eastwest;fontColor=default;" parent="ZzQm4s6gQr2k5gAJpQ90-0" vertex="1">
          <mxGeometry y="176" width="300" height="26" as="geometry" />
        </mxCell>
        <mxCell id="ZzQm4s6gQr2k5gAJpQ90-3" value="" style="line;html=1;strokeWidth=1;align=left;verticalAlign=middle;spacingTop=-1;spacingLeft=3;spacingRight=3;rotatable=0;labelPosition=right;points=[];portConstraint=eastwest;" parent="ZzQm4s6gQr2k5gAJpQ90-0" vertex="1">
          <mxGeometry y="202" width="300" height="8" as="geometry" />
        </mxCell>
        <mxCell id="kwwsB1o3Xoa45IJOqoYI-29" value="__init__( p_id = None, &#xa;               p_visualize : bool = False,&#xa;               **p_kwargs )" style="text;align=left;verticalAlign=top;spacingLeft=4;spacingRight=4;overflow=hidden;rotatable=0;points=[[0,0.5],[1,0.5]];portConstraint=eastwest;fontColor=default;" parent="ZzQm4s6gQr2k5gAJpQ90-0" vertex="1">
          <mxGeometry y="210" width="300" height="53" as="geometry" />
        </mxCell>
        <mxCell id="kwwsB1o3Xoa45IJOqoYI-11" value="get_membership( p_inst : Instance ) -&gt; float" style="text;align=left;verticalAlign=top;spacingLeft=4;spacingRight=4;overflow=hidden;rotatable=0;points=[[0,0.5],[1,0.5]];portConstraint=eastwest;fontColor=#0000FF;" parent="ZzQm4s6gQr2k5gAJpQ90-0" vertex="1">
          <mxGeometry y="263" width="300" height="30" as="geometry" />
        </mxCell>
        <mxCell id="KbXGNwIy8tF2vyQGKh3L-19" style="edgeStyle=orthogonalEdgeStyle;rounded=0;orthogonalLoop=1;jettySize=auto;html=1;fontColor=default;endArrow=block;endFill=0;" parent="WIyWlLk6GJQsqaUBKTNV-1" source="wgUTGSHIKvsrYvQJ55uV-24" target="ZzQm4s6gQr2k5gAJpQ90-0" edge="1">
          <mxGeometry relative="1" as="geometry" />
        </mxCell>
        <mxCell id="wgUTGSHIKvsrYvQJ55uV-24" value="ClusterCentroid (Cluster)" style="swimlane;fontStyle=3;align=center;verticalAlign=top;childLayout=stackLayout;horizontal=1;startSize=26;horizontalStack=0;resizeParent=1;resizeLast=0;collapsible=1;marginBottom=0;rounded=0;shadow=1;strokeWidth=1;fillColor=#dae8fc;strokeColor=#6c8ebf;swimlaneFillColor=#ffffff;gradientColor=#FFFFFF;" parent="WIyWlLk6GJQsqaUBKTNV-1" vertex="1">
          <mxGeometry x="650" y="750" width="300" height="181" as="geometry">
            <mxRectangle x="230" y="140" width="160" height="26" as="alternateBounds" />
          </mxGeometry>
        </mxCell>
        <mxCell id="wgUTGSHIKvsrYvQJ55uV-32" value="_centroid : bf.math.geometry.Point" style="text;align=left;verticalAlign=top;spacingLeft=4;spacingRight=4;overflow=hidden;rotatable=0;points=[[0,0.5],[1,0.5]];portConstraint=eastwest;" parent="wgUTGSHIKvsrYvQJ55uV-24" vertex="1">
          <mxGeometry y="26" width="300" height="26" as="geometry" />
        </mxCell>
        <mxCell id="wgUTGSHIKvsrYvQJ55uV-42" value="" style="line;html=1;strokeWidth=1;align=left;verticalAlign=middle;spacingTop=-1;spacingLeft=3;spacingRight=3;rotatable=0;labelPosition=right;points=[];portConstraint=eastwest;" parent="wgUTGSHIKvsrYvQJ55uV-24" vertex="1">
          <mxGeometry y="52" width="300" height="8" as="geometry" />
        </mxCell>
        <mxCell id="1s4E6dsTAfM4Sj1OL9Xe-8" value="__init__( p_id = None, &#xa;               p_visualize : bool = False,&#xa;               p_cls_centroid : bf.math.geometry.Point,&#xa;               **p_kwargs )" style="text;align=left;verticalAlign=top;spacingLeft=4;spacingRight=4;overflow=hidden;rotatable=0;points=[[0,0.5],[1,0.5]];portConstraint=eastwest;fontColor=default;" parent="wgUTGSHIKvsrYvQJ55uV-24" vertex="1">
          <mxGeometry y="60" width="300" height="65" as="geometry" />
        </mxCell>
        <mxCell id="wgUTGSHIKvsrYvQJ55uV-58" value="get_centroid() -&gt; bf.math.geometry.Point" style="text;align=left;verticalAlign=top;spacingLeft=4;spacingRight=4;overflow=hidden;rotatable=0;points=[[0,0.5],[1,0.5]];portConstraint=eastwest;" parent="wgUTGSHIKvsrYvQJ55uV-24" vertex="1">
          <mxGeometry y="125" width="300" height="26" as="geometry" />
        </mxCell>
        <mxCell id="kwwsB1o3Xoa45IJOqoYI-34" value="get_membership( p_inst : Instance ) -&gt; float" style="text;align=left;verticalAlign=top;spacingLeft=4;spacingRight=4;overflow=hidden;rotatable=0;points=[[0,0.5],[1,0.5]];portConstraint=eastwest;fontColor=default;" parent="wgUTGSHIKvsrYvQJ55uV-24" vertex="1">
          <mxGeometry y="151" width="300" height="30" as="geometry" />
        </mxCell>
      </root>
    </mxGraphModel>
  </diagram>
</mxfile>
